%TF.GenerationSoftware,KiCad,Pcbnew,9.0.1*%
%TF.CreationDate,2026-05-29T16:27:02-07:00*%
%TF.ProjectId,Ivium Adapter,49766975-6d20-4416-9461-707465722e6b,rev?*%
%TF.SameCoordinates,Original*%
%TF.FileFunction,Legend,Bot*%
%TF.FilePolarity,Positive*%
%FSLAX46Y46*%
G04 Gerber Fmt 4.6, Leading zero omitted, Abs format (unit mm)*
G04 Created by KiCad (PCBNEW 9.0.1) date 2026-05-29 16:27:02*
%MOMM*%
%LPD*%
G01*
G04 APERTURE LIST*
%ADD10C,0.200000*%
%ADD11C,0.120000*%
G04 APERTURE END LIST*
D10*
X82706984Y-107319460D02*
X82385009Y-107405733D01*
X82382592Y-107948669D02*
X82842556Y-107825421D01*
X82842556Y-107825421D02*
X82583737Y-106859496D01*
X82583737Y-106859496D02*
X82123773Y-106982743D01*
X81462662Y-108195163D02*
X82014620Y-108047266D01*
X81738641Y-108121215D02*
X81479822Y-107155289D01*
X81479822Y-107155289D02*
X81608789Y-107268629D01*
X81608789Y-107268629D02*
X81725431Y-107335972D01*
X81725431Y-107335972D02*
X81829749Y-107357319D01*
X84234984Y-89670460D02*
X83913009Y-89756733D01*
X83910592Y-90299669D02*
X84370556Y-90176421D01*
X84370556Y-90176421D02*
X84111737Y-89210496D01*
X84111737Y-89210496D02*
X83651773Y-89333743D01*
X83053818Y-89493964D02*
X82961825Y-89518614D01*
X82961825Y-89518614D02*
X82882157Y-89589259D01*
X82882157Y-89589259D02*
X82848486Y-89647581D01*
X82848486Y-89647581D02*
X82827138Y-89751898D01*
X82827138Y-89751898D02*
X82830441Y-89948209D01*
X82830441Y-89948209D02*
X82892064Y-90178191D01*
X82892064Y-90178191D02*
X82987360Y-90349852D01*
X82987360Y-90349852D02*
X83058006Y-90429521D01*
X83058006Y-90429521D02*
X83116327Y-90463192D01*
X83116327Y-90463192D02*
X83220645Y-90484539D01*
X83220645Y-90484539D02*
X83312637Y-90459890D01*
X83312637Y-90459890D02*
X83392306Y-90389244D01*
X83392306Y-90389244D02*
X83425977Y-90330923D01*
X83425977Y-90330923D02*
X83447324Y-90226605D01*
X83447324Y-90226605D02*
X83444022Y-90030295D01*
X83444022Y-90030295D02*
X83382399Y-89800312D01*
X83382399Y-89800312D02*
X83287103Y-89628651D01*
X83287103Y-89628651D02*
X83216457Y-89548983D01*
X83216457Y-89548983D02*
X83158136Y-89515311D01*
X83158136Y-89515311D02*
X83053818Y-89493964D01*
X91808984Y-116213460D02*
X91487009Y-116299733D01*
X91484592Y-116842669D02*
X91944556Y-116719421D01*
X91944556Y-116719421D02*
X91685737Y-115753496D01*
X91685737Y-115753496D02*
X91225773Y-115876743D01*
X90882450Y-116067333D02*
X90824129Y-116033662D01*
X90824129Y-116033662D02*
X90719811Y-116012315D01*
X90719811Y-116012315D02*
X90489829Y-116073938D01*
X90489829Y-116073938D02*
X90410161Y-116144584D01*
X90410161Y-116144584D02*
X90376489Y-116202905D01*
X90376489Y-116202905D02*
X90355142Y-116307223D01*
X90355142Y-116307223D02*
X90379791Y-116399216D01*
X90379791Y-116399216D02*
X90462762Y-116524881D01*
X90462762Y-116524881D02*
X91162616Y-116928942D01*
X91162616Y-116928942D02*
X90564662Y-117089163D01*
X114669984Y-113503460D02*
X114348009Y-113589733D01*
X114345592Y-114132669D02*
X114805556Y-114009421D01*
X114805556Y-114009421D02*
X114546737Y-113043496D01*
X114546737Y-113043496D02*
X114086773Y-113166743D01*
X113345109Y-113710563D02*
X113517655Y-114354514D01*
X113476494Y-113280968D02*
X113891347Y-113909291D01*
X113891347Y-113909291D02*
X113293393Y-114069512D01*
X112862984Y-103080460D02*
X112541009Y-103166733D01*
X112538592Y-103709669D02*
X112998556Y-103586421D01*
X112998556Y-103586421D02*
X112739737Y-102620496D01*
X112739737Y-102620496D02*
X112279773Y-102743743D01*
X111957797Y-102830016D02*
X111359843Y-102990237D01*
X111359843Y-102990237D02*
X111780416Y-103271936D01*
X111780416Y-103271936D02*
X111642427Y-103308910D01*
X111642427Y-103308910D02*
X111562759Y-103379556D01*
X111562759Y-103379556D02*
X111529087Y-103437877D01*
X111529087Y-103437877D02*
X111507740Y-103542195D01*
X111507740Y-103542195D02*
X111569363Y-103772177D01*
X111569363Y-103772177D02*
X111640009Y-103851845D01*
X111640009Y-103851845D02*
X111698330Y-103885517D01*
X111698330Y-103885517D02*
X111802648Y-103906864D01*
X111802648Y-103906864D02*
X112078627Y-103832916D01*
X112078627Y-103832916D02*
X112158295Y-103762270D01*
X112158295Y-103762270D02*
X112191967Y-103703949D01*
X108276984Y-81679460D02*
X107955009Y-81765733D01*
X107952592Y-82308669D02*
X108412556Y-82185421D01*
X108412556Y-82185421D02*
X108153737Y-81219496D01*
X108153737Y-81219496D02*
X107693773Y-81342743D01*
X106819840Y-81576912D02*
X107279804Y-81453665D01*
X107279804Y-81453665D02*
X107449048Y-81901305D01*
X107449048Y-81901305D02*
X107390727Y-81867633D01*
X107390727Y-81867633D02*
X107286409Y-81846286D01*
X107286409Y-81846286D02*
X107056427Y-81907910D01*
X107056427Y-81907910D02*
X106976759Y-81978556D01*
X106976759Y-81978556D02*
X106943087Y-82036877D01*
X106943087Y-82036877D02*
X106921740Y-82141195D01*
X106921740Y-82141195D02*
X106983363Y-82371177D01*
X106983363Y-82371177D02*
X107054009Y-82450845D01*
X107054009Y-82450845D02*
X107112330Y-82484517D01*
X107112330Y-82484517D02*
X107216648Y-82505864D01*
X107216648Y-82505864D02*
X107446630Y-82444240D01*
X107446630Y-82444240D02*
X107526299Y-82373595D01*
X107526299Y-82373595D02*
X107559970Y-82315273D01*
X109663556Y-91635421D02*
X109404737Y-90669496D01*
X109527984Y-91129460D02*
X108976027Y-91277357D01*
X109111599Y-91783318D02*
X108852780Y-90817392D01*
X108208829Y-90989938D02*
X108116836Y-91014588D01*
X108116836Y-91014588D02*
X108037168Y-91085234D01*
X108037168Y-91085234D02*
X108003496Y-91143555D01*
X108003496Y-91143555D02*
X107982149Y-91247872D01*
X107982149Y-91247872D02*
X107985452Y-91444183D01*
X107985452Y-91444183D02*
X108047075Y-91674165D01*
X108047075Y-91674165D02*
X108142371Y-91845826D01*
X108142371Y-91845826D02*
X108213016Y-91925495D01*
X108213016Y-91925495D02*
X108271338Y-91959166D01*
X108271338Y-91959166D02*
X108375655Y-91980513D01*
X108375655Y-91980513D02*
X108467648Y-91955864D01*
X108467648Y-91955864D02*
X108547316Y-91885218D01*
X108547316Y-91885218D02*
X108580988Y-91826897D01*
X108580988Y-91826897D02*
X108602335Y-91722579D01*
X108602335Y-91722579D02*
X108599033Y-91526269D01*
X108599033Y-91526269D02*
X108537409Y-91296286D01*
X108537409Y-91296286D02*
X108442114Y-91124625D01*
X108442114Y-91124625D02*
X108371468Y-91044957D01*
X108371468Y-91044957D02*
X108313147Y-91011285D01*
X108313147Y-91011285D02*
X108208829Y-90989938D01*
X119391556Y-94275421D02*
X119132737Y-93309496D01*
X119255984Y-93769460D02*
X118704027Y-93917357D01*
X118839599Y-94423318D02*
X118580780Y-93457392D01*
X117873673Y-94682137D02*
X118425631Y-94534240D01*
X118149652Y-94608189D02*
X117890833Y-93642263D01*
X117890833Y-93642263D02*
X118019800Y-93755603D01*
X118019800Y-93755603D02*
X118136442Y-93822946D01*
X118136442Y-93822946D02*
X118240760Y-93844293D01*
X99022009Y-102906733D02*
X99343984Y-102820460D01*
X99479556Y-103326421D02*
X99220737Y-102360496D01*
X99220737Y-102360496D02*
X98760773Y-102483743D01*
X98463447Y-102662009D02*
X98405125Y-102628337D01*
X98405125Y-102628337D02*
X98300808Y-102606990D01*
X98300808Y-102606990D02*
X98070825Y-102668614D01*
X98070825Y-102668614D02*
X97991157Y-102739259D01*
X97991157Y-102739259D02*
X97957485Y-102797581D01*
X97957485Y-102797581D02*
X97936138Y-102901898D01*
X97936138Y-102901898D02*
X97960788Y-102993891D01*
X97960788Y-102993891D02*
X98043758Y-103119556D01*
X98043758Y-103119556D02*
X98743613Y-103523617D01*
X98743613Y-103523617D02*
X98145659Y-103683838D01*
X104023228Y-111899100D02*
X103897563Y-111982071D01*
X103897563Y-111982071D02*
X103667581Y-112043694D01*
X103667581Y-112043694D02*
X103563263Y-112022347D01*
X103563263Y-112022347D02*
X103504942Y-111988676D01*
X103504942Y-111988676D02*
X103434296Y-111909007D01*
X103434296Y-111909007D02*
X103409647Y-111817014D01*
X103409647Y-111817014D02*
X103430994Y-111712697D01*
X103430994Y-111712697D02*
X103464666Y-111654376D01*
X103464666Y-111654376D02*
X103544334Y-111583730D01*
X103544334Y-111583730D02*
X103715995Y-111488434D01*
X103715995Y-111488434D02*
X103795663Y-111417789D01*
X103795663Y-111417789D02*
X103829335Y-111359467D01*
X103829335Y-111359467D02*
X103850682Y-111255150D01*
X103850682Y-111255150D02*
X103826033Y-111163157D01*
X103826033Y-111163157D02*
X103755387Y-111083489D01*
X103755387Y-111083489D02*
X103697066Y-111049817D01*
X103697066Y-111049817D02*
X103592748Y-111028470D01*
X103592748Y-111028470D02*
X103362766Y-111090093D01*
X103362766Y-111090093D02*
X103237101Y-111173064D01*
X102881454Y-111317658D02*
X102823133Y-111283986D01*
X102823133Y-111283986D02*
X102718815Y-111262639D01*
X102718815Y-111262639D02*
X102488833Y-111324263D01*
X102488833Y-111324263D02*
X102409164Y-111394909D01*
X102409164Y-111394909D02*
X102375493Y-111453230D01*
X102375493Y-111453230D02*
X102354146Y-111557548D01*
X102354146Y-111557548D02*
X102378795Y-111649541D01*
X102378795Y-111649541D02*
X102461766Y-111775205D01*
X102461766Y-111775205D02*
X103161620Y-112179266D01*
X103161620Y-112179266D02*
X102563666Y-112339488D01*
X91172228Y-108404100D02*
X91046563Y-108487071D01*
X91046563Y-108487071D02*
X90816581Y-108548694D01*
X90816581Y-108548694D02*
X90712263Y-108527347D01*
X90712263Y-108527347D02*
X90653942Y-108493676D01*
X90653942Y-108493676D02*
X90583296Y-108414007D01*
X90583296Y-108414007D02*
X90558647Y-108322014D01*
X90558647Y-108322014D02*
X90579994Y-108217697D01*
X90579994Y-108217697D02*
X90613666Y-108159376D01*
X90613666Y-108159376D02*
X90693334Y-108088730D01*
X90693334Y-108088730D02*
X90864995Y-107993434D01*
X90864995Y-107993434D02*
X90944663Y-107922789D01*
X90944663Y-107922789D02*
X90978335Y-107864467D01*
X90978335Y-107864467D02*
X90999682Y-107760150D01*
X90999682Y-107760150D02*
X90975033Y-107668157D01*
X90975033Y-107668157D02*
X90904387Y-107588489D01*
X90904387Y-107588489D02*
X90846066Y-107554817D01*
X90846066Y-107554817D02*
X90741748Y-107533470D01*
X90741748Y-107533470D02*
X90511766Y-107595093D01*
X90511766Y-107595093D02*
X90386101Y-107678064D01*
X89712666Y-108844488D02*
X90264623Y-108696591D01*
X89988645Y-108770539D02*
X89729826Y-107804614D01*
X89729826Y-107804614D02*
X89858793Y-107917953D01*
X89858793Y-107917953D02*
X89975435Y-107985297D01*
X89975435Y-107985297D02*
X90079753Y-108006644D01*
X88425009Y-98452733D02*
X88746984Y-98366460D01*
X88882556Y-98872421D02*
X88623737Y-97906496D01*
X88623737Y-97906496D02*
X88163773Y-98029743D01*
X87548659Y-99229838D02*
X88100616Y-99081942D01*
X87824637Y-99155890D02*
X87565818Y-98189964D01*
X87565818Y-98189964D02*
X87694785Y-98303304D01*
X87694785Y-98303304D02*
X87811428Y-98370648D01*
X87811428Y-98370648D02*
X87915745Y-98391995D01*
X95832383Y-111769164D02*
X95774062Y-111735492D01*
X95774062Y-111735492D02*
X95669744Y-111714145D01*
X95669744Y-111714145D02*
X95439762Y-111775769D01*
X95439762Y-111775769D02*
X95360094Y-111846415D01*
X95360094Y-111846415D02*
X95326422Y-111904736D01*
X95326422Y-111904736D02*
X95305075Y-112009053D01*
X95305075Y-112009053D02*
X95329724Y-112101046D01*
X95329724Y-112101046D02*
X95412695Y-112226711D01*
X95412695Y-112226711D02*
X96112549Y-112630772D01*
X96112549Y-112630772D02*
X95514595Y-112790993D01*
X99507595Y-97565993D02*
X100059553Y-97418097D01*
X99783574Y-97492045D02*
X99524755Y-96526119D01*
X99524755Y-96526119D02*
X99653722Y-96639459D01*
X99653722Y-96639459D02*
X99770364Y-96706803D01*
X99770364Y-96706803D02*
X99874682Y-96728150D01*
X98587666Y-97812488D02*
X99139623Y-97664591D01*
X98863645Y-97738539D02*
X98604826Y-96772614D01*
X98604826Y-96772614D02*
X98733793Y-96885953D01*
X98733793Y-96885953D02*
X98850435Y-96953297D01*
X98850435Y-96953297D02*
X98954753Y-96974644D01*
X109535595Y-109088993D02*
X110087553Y-108941097D01*
X109811574Y-109015045D02*
X109552755Y-108049119D01*
X109552755Y-108049119D02*
X109681722Y-108162459D01*
X109681722Y-108162459D02*
X109798364Y-108229803D01*
X109798364Y-108229803D02*
X109902682Y-108251150D01*
X108535113Y-108666888D02*
X108707659Y-109310838D01*
X108666497Y-108237292D02*
X109081350Y-108865616D01*
X109081350Y-108865616D02*
X108483396Y-109025837D01*
X95076773Y-103379743D02*
X95536737Y-103256496D01*
X95536737Y-103256496D02*
X95705981Y-103704136D01*
X95705981Y-103704136D02*
X95647660Y-103670464D01*
X95647660Y-103670464D02*
X95543342Y-103649117D01*
X95543342Y-103649117D02*
X95313360Y-103710740D01*
X95313360Y-103710740D02*
X95233692Y-103781386D01*
X95233692Y-103781386D02*
X95200020Y-103839707D01*
X95200020Y-103839707D02*
X95178673Y-103944025D01*
X95178673Y-103944025D02*
X95240296Y-104174007D01*
X95240296Y-104174007D02*
X95310942Y-104253676D01*
X95310942Y-104253676D02*
X95369263Y-104287347D01*
X95369263Y-104287347D02*
X95473581Y-104308694D01*
X95473581Y-104308694D02*
X95703563Y-104247071D01*
X95703563Y-104247071D02*
X95783232Y-104176425D01*
X95783232Y-104176425D02*
X95816903Y-104118104D01*
X104546595Y-88533993D02*
X105098553Y-88386097D01*
X104822574Y-88460045D02*
X104563755Y-87494119D01*
X104563755Y-87494119D02*
X104692722Y-87607459D01*
X104692722Y-87607459D02*
X104809364Y-87674803D01*
X104809364Y-87674803D02*
X104913682Y-87696150D01*
X103459840Y-87789912D02*
X103643826Y-87740614D01*
X103643826Y-87740614D02*
X103748143Y-87761961D01*
X103748143Y-87761961D02*
X103806464Y-87795632D01*
X103806464Y-87795632D02*
X103935431Y-87908972D01*
X103935431Y-87908972D02*
X104030727Y-88080633D01*
X104030727Y-88080633D02*
X104129325Y-88448605D01*
X104129325Y-88448605D02*
X104107977Y-88552923D01*
X104107977Y-88552923D02*
X104074306Y-88611244D01*
X104074306Y-88611244D02*
X103994638Y-88681890D01*
X103994638Y-88681890D02*
X103810652Y-88731189D01*
X103810652Y-88731189D02*
X103706334Y-88709842D01*
X103706334Y-88709842D02*
X103648013Y-88676170D01*
X103648013Y-88676170D02*
X103577367Y-88596502D01*
X103577367Y-88596502D02*
X103515743Y-88366519D01*
X103515743Y-88366519D02*
X103537090Y-88262202D01*
X103537090Y-88262202D02*
X103570762Y-88203881D01*
X103570762Y-88203881D02*
X103650430Y-88133235D01*
X103650430Y-88133235D02*
X103834416Y-88083936D01*
X103834416Y-88083936D02*
X103938734Y-88105283D01*
X103938734Y-88105283D02*
X103997055Y-88138955D01*
X103997055Y-88138955D02*
X104067701Y-88218623D01*
X89836751Y-91129794D02*
X89744758Y-91154444D01*
X89744758Y-91154444D02*
X89665090Y-91225090D01*
X89665090Y-91225090D02*
X89631419Y-91283411D01*
X89631419Y-91283411D02*
X89610071Y-91387729D01*
X89610071Y-91387729D02*
X89613374Y-91584039D01*
X89613374Y-91584039D02*
X89674997Y-91814022D01*
X89674997Y-91814022D02*
X89770293Y-91985683D01*
X89770293Y-91985683D02*
X89840939Y-92065351D01*
X89840939Y-92065351D02*
X89899260Y-92099023D01*
X89899260Y-92099023D02*
X90003578Y-92120370D01*
X90003578Y-92120370D02*
X90095570Y-92095720D01*
X90095570Y-92095720D02*
X90175239Y-92025074D01*
X90175239Y-92025074D02*
X90208910Y-91966753D01*
X90208910Y-91966753D02*
X90230257Y-91862436D01*
X90230257Y-91862436D02*
X90226955Y-91666125D01*
X90226955Y-91666125D02*
X90165331Y-91436143D01*
X90165331Y-91436143D02*
X90070036Y-91264481D01*
X90070036Y-91264481D02*
X89999390Y-91184813D01*
X89999390Y-91184813D02*
X89941069Y-91151141D01*
X89941069Y-91151141D02*
X89836751Y-91129794D01*
X94000042Y-98201393D02*
X94172588Y-98845344D01*
X94131427Y-97771798D02*
X94546280Y-98400121D01*
X94546280Y-98400121D02*
X93948326Y-98560343D01*
X87161595Y-103972993D02*
X87713553Y-103825097D01*
X87437574Y-103899045D02*
X87178755Y-102933119D01*
X87178755Y-102933119D02*
X87307722Y-103046459D01*
X87307722Y-103046459D02*
X87424364Y-103113803D01*
X87424364Y-103113803D02*
X87528682Y-103135150D01*
X105462595Y-102156993D02*
X106014553Y-102009097D01*
X105738574Y-102083045D02*
X105479755Y-101117119D01*
X105479755Y-101117119D02*
X105608722Y-101230459D01*
X105608722Y-101230459D02*
X105725364Y-101297803D01*
X105725364Y-101297803D02*
X105829682Y-101319150D01*
X104860454Y-101381658D02*
X104802133Y-101347986D01*
X104802133Y-101347986D02*
X104697815Y-101326639D01*
X104697815Y-101326639D02*
X104467833Y-101388263D01*
X104467833Y-101388263D02*
X104388164Y-101458909D01*
X104388164Y-101458909D02*
X104354493Y-101517230D01*
X104354493Y-101517230D02*
X104333146Y-101621548D01*
X104333146Y-101621548D02*
X104357795Y-101713541D01*
X104357795Y-101713541D02*
X104440766Y-101839205D01*
X104440766Y-101839205D02*
X105140620Y-102243266D01*
X105140620Y-102243266D02*
X104542666Y-102403488D01*
X101122769Y-105191418D02*
X101306755Y-105142119D01*
X101306755Y-105142119D02*
X101411073Y-105163466D01*
X101411073Y-105163466D02*
X101469394Y-105197138D01*
X101469394Y-105197138D02*
X101598361Y-105310478D01*
X101598361Y-105310478D02*
X101693656Y-105482139D01*
X101693656Y-105482139D02*
X101792254Y-105850111D01*
X101792254Y-105850111D02*
X101770907Y-105954428D01*
X101770907Y-105954428D02*
X101737235Y-106012750D01*
X101737235Y-106012750D02*
X101657567Y-106083396D01*
X101657567Y-106083396D02*
X101473581Y-106132694D01*
X101473581Y-106132694D02*
X101369263Y-106111347D01*
X101369263Y-106111347D02*
X101310942Y-106077676D01*
X101310942Y-106077676D02*
X101240296Y-105998007D01*
X101240296Y-105998007D02*
X101178673Y-105768025D01*
X101178673Y-105768025D02*
X101200020Y-105663707D01*
X101200020Y-105663707D02*
X101233692Y-105605386D01*
X101233692Y-105605386D02*
X101313360Y-105534740D01*
X101313360Y-105534740D02*
X101497346Y-105485441D01*
X101497346Y-105485441D02*
X101601663Y-105506789D01*
X101601663Y-105506789D02*
X101659984Y-105540460D01*
X101659984Y-105540460D02*
X101730630Y-105620128D01*
X104411595Y-96681993D02*
X104963553Y-96534097D01*
X104687574Y-96608045D02*
X104428755Y-95642119D01*
X104428755Y-95642119D02*
X104557722Y-95755459D01*
X104557722Y-95755459D02*
X104674364Y-95822803D01*
X104674364Y-95822803D02*
X104778682Y-95844150D01*
X103830801Y-95802341D02*
X103232847Y-95962562D01*
X103232847Y-95962562D02*
X103653420Y-96244261D01*
X103653420Y-96244261D02*
X103515430Y-96281235D01*
X103515430Y-96281235D02*
X103435762Y-96351881D01*
X103435762Y-96351881D02*
X103402090Y-96410202D01*
X103402090Y-96410202D02*
X103380743Y-96514519D01*
X103380743Y-96514519D02*
X103442367Y-96744502D01*
X103442367Y-96744502D02*
X103513013Y-96824170D01*
X103513013Y-96824170D02*
X103571334Y-96857842D01*
X103571334Y-96857842D02*
X103675652Y-96879189D01*
X103675652Y-96879189D02*
X103951630Y-96805240D01*
X103951630Y-96805240D02*
X104031299Y-96734595D01*
X104031299Y-96734595D02*
X104064970Y-96676273D01*
X112435595Y-97102993D02*
X112987553Y-96955097D01*
X112711574Y-97029045D02*
X112452755Y-96063119D01*
X112452755Y-96063119D02*
X112581722Y-96176459D01*
X112581722Y-96176459D02*
X112698364Y-96243803D01*
X112698364Y-96243803D02*
X112802682Y-96265150D01*
X111302843Y-96371237D02*
X111762808Y-96247990D01*
X111762808Y-96247990D02*
X111932052Y-96695630D01*
X111932052Y-96695630D02*
X111873730Y-96661958D01*
X111873730Y-96661958D02*
X111769413Y-96640611D01*
X111769413Y-96640611D02*
X111539430Y-96702235D01*
X111539430Y-96702235D02*
X111459762Y-96772881D01*
X111459762Y-96772881D02*
X111426090Y-96831202D01*
X111426090Y-96831202D02*
X111404743Y-96935519D01*
X111404743Y-96935519D02*
X111466367Y-97165502D01*
X111466367Y-97165502D02*
X111537013Y-97245170D01*
X111537013Y-97245170D02*
X111595334Y-97278842D01*
X111595334Y-97278842D02*
X111699652Y-97300189D01*
X111699652Y-97300189D02*
X111929634Y-97238565D01*
X111929634Y-97238565D02*
X112009302Y-97167919D01*
X112009302Y-97167919D02*
X112042974Y-97109598D01*
D11*
%TO.C,J6*%
X91958339Y-79717359D02*
X92533339Y-80713288D01*
X92533339Y-80713288D02*
X91624012Y-81238288D01*
X91624012Y-81238288D02*
X92119012Y-82095653D01*
X89960090Y-78596289D02*
X86599910Y-80536289D01*
X86571661Y-82827359D02*
X87146660Y-83823288D01*
X87146660Y-83823288D02*
X88055988Y-83298288D01*
%TD*%
M02*
