%TF.GenerationSoftware,KiCad,Pcbnew,9.0.1*%
%TF.CreationDate,2026-02-18T22:23:56-08:00*%
%TF.ProjectId,Ivium Adapter,49766975-6d20-4416-9461-707465722e6b,rev?*%
%TF.SameCoordinates,Original*%
%TF.FileFunction,Copper,L1,Top*%
%TF.FilePolarity,Positive*%
%FSLAX46Y46*%
G04 Gerber Fmt 4.6, Leading zero omitted, Abs format (unit mm)*
G04 Created by KiCad (PCBNEW 9.0.1) date 2026-02-18 22:23:56*
%MOMM*%
%LPD*%
G01*
G04 APERTURE LIST*
G04 Aperture macros list*
%AMRotRect*
0 Rectangle, with rotation*
0 The origin of the aperture is its center*
0 $1 length*
0 $2 width*
0 $3 Rotation angle, in degrees counterclockwise*
0 Add horizontal line*
21,1,$1,$2,0,0,$3*%
G04 Aperture macros list end*
%TA.AperFunction,NonConductor*%
%ADD10C,0.300000*%
%TD*%
%TA.AperFunction,SMDPad,CuDef*%
%ADD11RotRect,0.300000X0.700000X15.000000*%
%TD*%
%TA.AperFunction,SMDPad,CuDef*%
%ADD12RotRect,0.300000X1.000000X15.000000*%
%TD*%
%TA.AperFunction,ViaPad*%
%ADD13C,0.600000*%
%TD*%
%TA.AperFunction,ViaPad*%
%ADD14C,4.500000*%
%TD*%
G04 APERTURE END LIST*
D10*
X95513000Y-80320000D02*
X91373000Y-80213000D01*
X96523000Y-84025000D02*
X95513000Y-80320000D01*
X103484259Y-99061804D02*
X100015553Y-99995759D01*
X100172000Y-96407000D02*
G75*
G02*
X103484259Y-99062084I-156447J-3588759D01*
G01*
X100325844Y-95001605D02*
G75*
G02*
X104780683Y-101494969I-325823J-4998360D01*
G01*
X104780674Y-101494969D02*
X108543000Y-102526000D01*
X100163727Y-96406650D02*
X96992000Y-83881000D01*
X100325838Y-95001605D02*
X97481000Y-83761000D01*
X92632000Y-85011000D02*
X93597639Y-88811655D01*
X93130000Y-84925000D02*
X94280282Y-89408304D01*
X99841025Y-91072628D02*
X97944000Y-83584000D01*
X98465000Y-83584000D02*
X99607000Y-87968000D01*
X98937000Y-83421000D02*
X99928000Y-87128000D01*
X112427118Y-96632018D02*
X115432000Y-95793000D01*
X108692424Y-108315009D02*
X111502000Y-111081000D01*
X95928388Y-111327217D02*
X94604000Y-115068000D01*
X95928388Y-111327218D02*
G75*
G02*
X94267891Y-89414999I4069620J11327419D01*
G01*
X87553517Y-103357430D02*
G75*
G02*
X93557000Y-88835000I12444511J3357632D01*
G01*
X99608932Y-87975415D02*
G75*
G02*
X108692431Y-108315008I389099J-12024337D01*
G01*
X99927012Y-87124781D02*
G75*
G02*
X112427117Y-96632033I73017J-12875173D01*
G01*
X96029000Y-84177000D02*
X95453000Y-82108000D01*
X95453000Y-82108000D02*
X93410000Y-82111000D01*
X95540000Y-84272000D02*
X95177000Y-82948000D01*
X95177000Y-82948000D02*
X94163000Y-82948000D01*
X91373000Y-80213000D02*
X89766000Y-81149000D01*
X92406000Y-83516000D02*
X91272000Y-81741000D01*
X94836000Y-83516000D02*
X92406000Y-83516000D01*
X95068000Y-84403000D02*
X94836000Y-83516000D01*
X102325000Y-108699000D02*
X100938519Y-103482706D01*
X93146000Y-105827000D02*
X96069000Y-103121000D01*
X97777000Y-97152000D02*
X94571000Y-84491000D01*
X94089900Y-84630813D02*
X96971424Y-96005815D01*
X96072018Y-103121000D02*
G75*
G02*
X96971431Y-96005815I3923423J3118489D01*
G01*
X100849991Y-103505413D02*
G75*
G02*
X97776999Y-97156875I-851963J3505615D01*
G01*
X93605500Y-84778000D02*
X95497600Y-92247187D01*
X91436000Y-97317000D02*
G75*
G02*
X95517000Y-92236000I8545720J-2684417D01*
G01*
X99863833Y-91072628D02*
G75*
G02*
X106434000Y-93847000I68167J-9005369D01*
G01*
X99409000Y-83267000D02*
G75*
G02*
X105521679Y-84192809I591031J-16740173D01*
G01*
X84538000Y-104161000D02*
X87553517Y-103356979D01*
X88126794Y-88126794D02*
G75*
G02*
X92168000Y-85181000I11749077J-11873171D01*
G01*
D11*
%TO.P,REF\u002A\u002A,1*%
%TO.N,N/C*%
X92165559Y-85193680D03*
%TO.P,REF\u002A\u002A,2*%
X92648521Y-85064270D03*
%TO.P,REF\u002A\u002A,3*%
X93131486Y-84934860D03*
%TO.P,REF\u002A\u002A,4*%
X93614448Y-84805452D03*
%TO.P,REF\u002A\u002A,5*%
X94097412Y-84676041D03*
%TO.P,REF\u002A\u002A,6*%
X94580374Y-84546633D03*
%TO.P,REF\u002A\u002A,7*%
X95063336Y-84417223D03*
%TO.P,REF\u002A\u002A,8*%
X95546301Y-84287813D03*
%TO.P,REF\u002A\u002A,9*%
X96029263Y-84158404D03*
%TO.P,REF\u002A\u002A,10*%
X96512227Y-84028994D03*
%TO.P,REF\u002A\u002A,11*%
X96995188Y-83899585D03*
%TO.P,REF\u002A\u002A,12*%
X97478150Y-83770175D03*
%TO.P,REF\u002A\u002A,13*%
X97961116Y-83640765D03*
%TO.P,REF\u002A\u002A,14*%
X98444078Y-83511357D03*
%TO.P,REF\u002A\u002A,15*%
X98927039Y-83381947D03*
%TO.P,REF\u002A\u002A,16*%
X99410003Y-83252537D03*
D12*
%TO.P,REF\u002A\u002A,P1*%
X92088348Y-87957850D03*
%TO.P,REF\u002A\u002A,P2*%
X100858937Y-85607779D03*
%TD*%
D13*
%TO.N,*%
X89766000Y-81149000D03*
X91272000Y-81741000D03*
X93421000Y-82079000D03*
X94176000Y-82936000D03*
D14*
X102320000Y-108603000D03*
X94618000Y-115042000D03*
X93243000Y-105815000D03*
X115458000Y-95825000D03*
X108534000Y-102550000D03*
X84546000Y-104171000D03*
X87718000Y-89732000D03*
X105487000Y-85015000D03*
X100023000Y-100023000D03*
X111547000Y-111060000D03*
X91486000Y-97362000D03*
X106402000Y-93779000D03*
%TD*%
M02*
