%TF.GenerationSoftware,KiCad,Pcbnew,9.0.1*%
%TF.CreationDate,2026-02-18T22:23:56-08:00*%
%TF.ProjectId,Ivium Adapter,49766975-6d20-4416-9461-707465722e6b,rev?*%
%TF.SameCoordinates,Original*%
%TF.FileFunction,Legend,Bot*%
%TF.FilePolarity,Positive*%
%FSLAX46Y46*%
G04 Gerber Fmt 4.6, Leading zero omitted, Abs format (unit mm)*
G04 Created by KiCad (PCBNEW 9.0.1) date 2026-02-18 22:23:56*
%MOMM*%
%LPD*%
G01*
G04 APERTURE LIST*
%ADD10C,0.200000*%
%ADD11C,0.120000*%
G04 APERTURE END LIST*
D10*
X104546595Y-88533993D02*
X105098553Y-88386097D01*
X104822574Y-88460045D02*
X104563755Y-87494119D01*
X104563755Y-87494119D02*
X104692722Y-87607459D01*
X104692722Y-87607459D02*
X104809364Y-87674803D01*
X104809364Y-87674803D02*
X104913682Y-87696150D01*
X103459840Y-87789912D02*
X103643826Y-87740614D01*
X103643826Y-87740614D02*
X103748143Y-87761961D01*
X103748143Y-87761961D02*
X103806464Y-87795632D01*
X103806464Y-87795632D02*
X103935431Y-87908972D01*
X103935431Y-87908972D02*
X104030727Y-88080633D01*
X104030727Y-88080633D02*
X104129325Y-88448605D01*
X104129325Y-88448605D02*
X104107977Y-88552923D01*
X104107977Y-88552923D02*
X104074306Y-88611244D01*
X104074306Y-88611244D02*
X103994638Y-88681890D01*
X103994638Y-88681890D02*
X103810652Y-88731189D01*
X103810652Y-88731189D02*
X103706334Y-88709842D01*
X103706334Y-88709842D02*
X103648013Y-88676170D01*
X103648013Y-88676170D02*
X103577367Y-88596502D01*
X103577367Y-88596502D02*
X103515743Y-88366519D01*
X103515743Y-88366519D02*
X103537090Y-88262202D01*
X103537090Y-88262202D02*
X103570762Y-88203881D01*
X103570762Y-88203881D02*
X103650430Y-88133235D01*
X103650430Y-88133235D02*
X103834416Y-88083936D01*
X103834416Y-88083936D02*
X103938734Y-88105283D01*
X103938734Y-88105283D02*
X103997055Y-88138955D01*
X103997055Y-88138955D02*
X104067701Y-88218623D01*
X112435595Y-97102993D02*
X112987553Y-96955097D01*
X112711574Y-97029045D02*
X112452755Y-96063119D01*
X112452755Y-96063119D02*
X112581722Y-96176459D01*
X112581722Y-96176459D02*
X112698364Y-96243803D01*
X112698364Y-96243803D02*
X112802682Y-96265150D01*
X111302843Y-96371237D02*
X111762808Y-96247990D01*
X111762808Y-96247990D02*
X111932052Y-96695630D01*
X111932052Y-96695630D02*
X111873730Y-96661958D01*
X111873730Y-96661958D02*
X111769413Y-96640611D01*
X111769413Y-96640611D02*
X111539430Y-96702235D01*
X111539430Y-96702235D02*
X111459762Y-96772881D01*
X111459762Y-96772881D02*
X111426090Y-96831202D01*
X111426090Y-96831202D02*
X111404743Y-96935519D01*
X111404743Y-96935519D02*
X111466367Y-97165502D01*
X111466367Y-97165502D02*
X111537013Y-97245170D01*
X111537013Y-97245170D02*
X111595334Y-97278842D01*
X111595334Y-97278842D02*
X111699652Y-97300189D01*
X111699652Y-97300189D02*
X111929634Y-97238565D01*
X111929634Y-97238565D02*
X112009302Y-97167919D01*
X112009302Y-97167919D02*
X112042974Y-97109598D01*
X109535595Y-109088993D02*
X110087553Y-108941097D01*
X109811574Y-109015045D02*
X109552755Y-108049119D01*
X109552755Y-108049119D02*
X109681722Y-108162459D01*
X109681722Y-108162459D02*
X109798364Y-108229803D01*
X109798364Y-108229803D02*
X109902682Y-108251150D01*
X108535113Y-108666888D02*
X108707659Y-109310838D01*
X108666497Y-108237292D02*
X109081350Y-108865616D01*
X109081350Y-108865616D02*
X108483396Y-109025837D01*
X104411595Y-96681993D02*
X104963553Y-96534097D01*
X104687574Y-96608045D02*
X104428755Y-95642119D01*
X104428755Y-95642119D02*
X104557722Y-95755459D01*
X104557722Y-95755459D02*
X104674364Y-95822803D01*
X104674364Y-95822803D02*
X104778682Y-95844150D01*
X103830801Y-95802341D02*
X103232847Y-95962562D01*
X103232847Y-95962562D02*
X103653420Y-96244261D01*
X103653420Y-96244261D02*
X103515430Y-96281235D01*
X103515430Y-96281235D02*
X103435762Y-96351881D01*
X103435762Y-96351881D02*
X103402090Y-96410202D01*
X103402090Y-96410202D02*
X103380743Y-96514519D01*
X103380743Y-96514519D02*
X103442367Y-96744502D01*
X103442367Y-96744502D02*
X103513013Y-96824170D01*
X103513013Y-96824170D02*
X103571334Y-96857842D01*
X103571334Y-96857842D02*
X103675652Y-96879189D01*
X103675652Y-96879189D02*
X103951630Y-96805240D01*
X103951630Y-96805240D02*
X104031299Y-96734595D01*
X104031299Y-96734595D02*
X104064970Y-96676273D01*
X105462595Y-102156993D02*
X106014553Y-102009097D01*
X105738574Y-102083045D02*
X105479755Y-101117119D01*
X105479755Y-101117119D02*
X105608722Y-101230459D01*
X105608722Y-101230459D02*
X105725364Y-101297803D01*
X105725364Y-101297803D02*
X105829682Y-101319150D01*
X104860454Y-101381658D02*
X104802133Y-101347986D01*
X104802133Y-101347986D02*
X104697815Y-101326639D01*
X104697815Y-101326639D02*
X104467833Y-101388263D01*
X104467833Y-101388263D02*
X104388164Y-101458909D01*
X104388164Y-101458909D02*
X104354493Y-101517230D01*
X104354493Y-101517230D02*
X104333146Y-101621548D01*
X104333146Y-101621548D02*
X104357795Y-101713541D01*
X104357795Y-101713541D02*
X104440766Y-101839205D01*
X104440766Y-101839205D02*
X105140620Y-102243266D01*
X105140620Y-102243266D02*
X104542666Y-102403488D01*
X99507595Y-97565993D02*
X100059553Y-97418097D01*
X99783574Y-97492045D02*
X99524755Y-96526119D01*
X99524755Y-96526119D02*
X99653722Y-96639459D01*
X99653722Y-96639459D02*
X99770364Y-96706803D01*
X99770364Y-96706803D02*
X99874682Y-96728150D01*
X98587666Y-97812488D02*
X99139623Y-97664591D01*
X98863645Y-97738539D02*
X98604826Y-96772614D01*
X98604826Y-96772614D02*
X98733793Y-96885953D01*
X98733793Y-96885953D02*
X98850435Y-96953297D01*
X98850435Y-96953297D02*
X98954753Y-96974644D01*
X101122769Y-105191418D02*
X101306755Y-105142119D01*
X101306755Y-105142119D02*
X101411073Y-105163466D01*
X101411073Y-105163466D02*
X101469394Y-105197138D01*
X101469394Y-105197138D02*
X101598361Y-105310478D01*
X101598361Y-105310478D02*
X101693656Y-105482139D01*
X101693656Y-105482139D02*
X101792254Y-105850111D01*
X101792254Y-105850111D02*
X101770907Y-105954428D01*
X101770907Y-105954428D02*
X101737235Y-106012750D01*
X101737235Y-106012750D02*
X101657567Y-106083396D01*
X101657567Y-106083396D02*
X101473581Y-106132694D01*
X101473581Y-106132694D02*
X101369263Y-106111347D01*
X101369263Y-106111347D02*
X101310942Y-106077676D01*
X101310942Y-106077676D02*
X101240296Y-105998007D01*
X101240296Y-105998007D02*
X101178673Y-105768025D01*
X101178673Y-105768025D02*
X101200020Y-105663707D01*
X101200020Y-105663707D02*
X101233692Y-105605386D01*
X101233692Y-105605386D02*
X101313360Y-105534740D01*
X101313360Y-105534740D02*
X101497346Y-105485441D01*
X101497346Y-105485441D02*
X101601663Y-105506789D01*
X101601663Y-105506789D02*
X101659984Y-105540460D01*
X101659984Y-105540460D02*
X101730630Y-105620128D01*
X95076773Y-103379743D02*
X95536737Y-103256496D01*
X95536737Y-103256496D02*
X95705981Y-103704136D01*
X95705981Y-103704136D02*
X95647660Y-103670464D01*
X95647660Y-103670464D02*
X95543342Y-103649117D01*
X95543342Y-103649117D02*
X95313360Y-103710740D01*
X95313360Y-103710740D02*
X95233692Y-103781386D01*
X95233692Y-103781386D02*
X95200020Y-103839707D01*
X95200020Y-103839707D02*
X95178673Y-103944025D01*
X95178673Y-103944025D02*
X95240296Y-104174007D01*
X95240296Y-104174007D02*
X95310942Y-104253676D01*
X95310942Y-104253676D02*
X95369263Y-104287347D01*
X95369263Y-104287347D02*
X95473581Y-104308694D01*
X95473581Y-104308694D02*
X95703563Y-104247071D01*
X95703563Y-104247071D02*
X95783232Y-104176425D01*
X95783232Y-104176425D02*
X95816903Y-104118104D01*
X94000042Y-98201393D02*
X94172588Y-98845344D01*
X94131427Y-97771798D02*
X94546280Y-98400121D01*
X94546280Y-98400121D02*
X93948326Y-98560343D01*
X95853730Y-111664846D02*
X95255776Y-111825067D01*
X95255776Y-111825067D02*
X95676349Y-112106766D01*
X95676349Y-112106766D02*
X95538360Y-112143740D01*
X95538360Y-112143740D02*
X95458692Y-112214386D01*
X95458692Y-112214386D02*
X95425020Y-112272707D01*
X95425020Y-112272707D02*
X95403673Y-112377025D01*
X95403673Y-112377025D02*
X95465296Y-112607007D01*
X95465296Y-112607007D02*
X95535942Y-112686676D01*
X95535942Y-112686676D02*
X95594263Y-112720347D01*
X95594263Y-112720347D02*
X95698581Y-112741694D01*
X95698581Y-112741694D02*
X95974560Y-112667746D01*
X95974560Y-112667746D02*
X96054228Y-112597100D01*
X96054228Y-112597100D02*
X96087900Y-112538779D01*
X87479383Y-102951164D02*
X87421062Y-102917492D01*
X87421062Y-102917492D02*
X87316744Y-102896145D01*
X87316744Y-102896145D02*
X87086762Y-102957769D01*
X87086762Y-102957769D02*
X87007094Y-103028415D01*
X87007094Y-103028415D02*
X86973422Y-103086736D01*
X86973422Y-103086736D02*
X86952075Y-103191053D01*
X86952075Y-103191053D02*
X86976724Y-103283046D01*
X86976724Y-103283046D02*
X87059695Y-103408711D01*
X87059695Y-103408711D02*
X87759549Y-103812772D01*
X87759549Y-103812772D02*
X87161595Y-103972993D01*
X89773595Y-92181993D02*
X90325553Y-92034097D01*
X90049574Y-92108045D02*
X89790755Y-91142119D01*
X89790755Y-91142119D02*
X89919722Y-91255459D01*
X89919722Y-91255459D02*
X90036364Y-91322803D01*
X90036364Y-91322803D02*
X90140682Y-91344150D01*
D11*
%TO.C,REF\u002A\u002A*%
X91958339Y-79717359D02*
X92533339Y-80713289D01*
X92533339Y-80713289D02*
X91624012Y-81238289D01*
X91624012Y-81238289D02*
X92119012Y-82095653D01*
X89960088Y-78596289D02*
X86599910Y-80536289D01*
X86571661Y-82827360D02*
X87146661Y-83823287D01*
X87146661Y-83823287D02*
X88055987Y-83298287D01*
%TD*%
M02*
