0
SECTION
2
HEADER
9
$INSUNITS
70
4
9
$ACADVER
1
AC1014
9
$HANDSEED
5
FFFF
0
ENDSEC
0
SECTION
2
TABLES
0
TABLE
2
VPORT
5
8
100
AcDbSymbolTable
0
ENDTAB
0
TABLE
2
LTYPE
5
5
100
AcDbSymbolTable
0
LTYPE
5
14
100
AcDbSymbolTableRecord
100
AcDbLinetypeTableRecord
2
BYBLOCK
70
0
0
LTYPE
5
15
100
AcDbSymbolTableRecord
100
AcDbLinetypeTableRecord
2
BYLAYER
70
0
0
LTYPE
5
16
100
AcDbSymbolTableRecord
100
AcDbLinetypeTableRecord
2
DASHED
70
0
3
Dashed __ __ __ __ __ __ __ __ __ __ __ __ __ _
72
65
73
2
40
0.75
49
0.5
74
0
49
-0.25
74
0
0
ENDTAB
0
TABLE
2
LAYER
5
2
100
AcDbSymbolTable
70
2
0
LAYER
5
50
100
AcDbSymbolTableRecord
100
AcDbLayerTableRecord
2
0
70
0
62
7
6
CONTINUOUS
0
ENDTAB
0
TABLE
2
STYLE
5
3
100
AcDbSymbolTable
70
1
0
STYLE
5
11
100
AcDbSymbolTableRecord
100
AcDbTextStyleTableRecord
2
STANDARD
70
0
0
ENDTAB
0
TABLE
2
VIEW
5
6
100
AcDbSymbolTable
70
0
0
ENDTAB
0
TABLE
2
UCS
5
7
100
AcDbSymbolTable
70
0
0
ENDTAB
0
TABLE
2
APPID
5
9
100
AcDbSymbolTable
70
2
0
APPID
5
12
100
AcDbSymbolTableRecord
100
AcDbRegAppTableRecord
2
ACAD
70
0
0
ENDTAB
0
TABLE
2
DIMSTYLE
5
A
100
AcDbSymbolTable
70
1
0
ENDTAB
0
TABLE
2
BLOCK_RECORD
5
1
100
AcDbSymbolTable
70
1
0
BLOCK_RECORD
5
1F
100
AcDbSymbolTableRecord
100
AcDbBlockTableRecord
2
*MODEL_SPACE
0
BLOCK_RECORD
5
1B
100
AcDbSymbolTableRecord
100
AcDbBlockTableRecord
2
*PAPER_SPACE
0
ENDTAB
0
ENDSEC
0
SECTION
2
BLOCKS
0
BLOCK
5
20
100
AcDbEntity
100
AcDbBlockBegin
2
*MODEL_SPACE
0
ENDBLK
5
21
100
AcDbEntity
100
AcDbBlockEnd
0
BLOCK
5
1C
100
AcDbEntity
100
AcDbBlockBegin
2
*PAPER_SPACE
0
ENDBLK
5
1D
100
AcDbEntity
100
AcDbBlockEnd
0
ENDSEC
0
SECTION
2
ENTITIES
0
CIRCLE
5
100
100
AcDbEntity
8
0
100
AcDbCircle
10
-0.12143774083100578
20
36.473108772481531
30
0
40
2.7050999999999998
210
0
220
0
230
1
0
CIRCLE
5
101
100
AcDbEntity
8
0
100
AcDbCircle
10
1.539213201340317e-11
20
-36.472354309754415
30
0
40
2.7050999999999998
210
0
220
0
230
1
0
CIRCLE
5
102
100
AcDbEntity
8
0
100
AcDbCircle
10
-11.69358536554288
20
32.12786174429408
30
0
40
2.7051000000000003
210
0
220
0
230
1
0
CIRCLE
5
103
100
AcDbEntity
8
0
100
AcDbCircle
10
-27.697561762248434
20
71.500883801111343
30
0
40
15.250000000000004
210
0
220
-0
230
1
0
CIRCLE
5
104
100
AcDbEntity
8
0
100
AcDbCircle
10
71.500883801111343
20
27.697561762248437
30
0
40
15.250000000000004
210
-0
220
0
230
1
0
CIRCLE
5
105
100
AcDbEntity
8
0
100
AcDbCircle
10
27.697561762248441
20
-71.500883801111343
30
0
40
15.250000000000004
210
0
220
-0
230
1
0
CIRCLE
5
106
100
AcDbEntity
8
0
100
AcDbCircle
10
-51.697561762247837
20
71.500883801111314
30
0
40
1.25
210
0
220
-0
230
1
0
CIRCLE
5
107
100
AcDbEntity
8
0
100
AcDbCircle
10
-3.6975617622490575
20
71.500883801111428
30
0
40
1.25
210
0
220
-0
230
1
0
CIRCLE
5
108
100
AcDbEntity
8
0
100
AcDbCircle
10
71.5008838011113
20
51.697561762247844
30
0
40
1.25
210
-0
220
0
230
1
0
CIRCLE
5
109
100
AcDbEntity
8
0
100
AcDbCircle
10
71.500883801111428
20
3.697561762249062
30
0
40
1.25
210
-0
220
0
230
1
0
CIRCLE
5
110
100
AcDbEntity
8
0
100
AcDbCircle
10
51.697561762247844
20
-71.5008838011113
30
0
40
1.25
210
0
220
-0
230
1
0
CIRCLE
5
111
100
AcDbEntity
8
0
100
AcDbCircle
10
3.6975617622490664
20
-71.500883801111428
30
0
40
1.25
210
0
220
-0
230
1
0
LWPOLYLINE
5
112
100
AcDbEntity
8
0
100
AcDbPolyline
90
40
70
1
43
0.0
10
-52.245774355179257
20
75.000000000000014
10
-62.300000000000004
20
75
42
0.35887287381781091
10
-74.765256516705421
20
64.730510228888804
42
0.76183731119787879
10
-69.283062693675475
20
62.005516790622146
42
-0.013844635768139766
10
-65.745064030267287
20
65.745064030267287
42
-0.99999999999999989
10
-61.254935969732706
20
61.254935969732706
42
0.065417912896745881
10
-75.000000000000014
20
43.35129019201279
10
-75.000000000000014
20
-3.1493491693175901
10
-85.648574974137915
20
-15.392874262248705
42
0.37402890784289211
10
-85.648574974137944
20
-40.002249262248164
10
-75
20
-52.245774355179279
10
-75
20
-62.300000000000004
42
0.35887287381781091
10
-64.730510228888804
20
-74.765256516705421
42
0.76183731119787879
10
-62.005516790621314
20
-69.283062693674637
42
-0.013844635768136767
10
-65.745064030267287
20
-65.745064030267287
42
-0.99999999999999989
10
-61.254935969732713
20
-61.25493596973272
42
0.06541791289672852
10
-43.35129019201279
20
-75.000000000000014
10
3.1493491693175901
20
-75.000000000000014
10
15.392874262248702
20
-85.648574974137915
42
0.37402890784289211
10
40.002249262248164
20
-85.648574974137944
10
52.245774355179265
20
-75
10
62.300000000000004
20
-75
42
0.35887287381781091
10
74.765256516705421
20
-64.730510228888804
42
0.76183731119787879
10
69.283062693675276
20
-62.005516790622323
42
-0.01384463576813277
10
65.745064030267287
20
-65.745064030267287
42
-0.99999999999999989
10
61.254935969732713
20
-61.254935969732713
42
0.065417912896714281
10
75.000000000000014
20
-43.35129019201279
10
75.000000000000014
20
3.1493491693175812
10
85.648574974137915
20
15.392874262248696
42
0.37402890784289211
10
85.648574974137944
20
40.002249262248156
10
75
20
52.245774355179257
10
75
20
62.300000000000004
42
0.35887287381781091
10
64.730510228888804
20
74.765256516705421
42
0.76183731119787879
10
62.005516790623147
20
69.283062693676129
42
-0.013844635768135768
10
65.745064030267287
20
65.745064030267287
42
-0.99999999999999989
10
61.254935969732706
20
61.25493596973272
42
0.065417912896731739
10
43.35129019201279
20
75.000000000000014
10
-3.1493491693175724
20
75.000000000000014
10
-15.392874262248689
20
85.648574974137915
42
0.37402890784289206
10
-40.002249262248142
20
85.648574974137944
0
CIRCLE
5
113
100
AcDbEntity
8
0
100
AcDbCircle
10
-71.500883801111343
20
-27.697561762248448
30
0
40
15.250000000000004
210
0
220
-0
230
1
0
CIRCLE
5
114
100
AcDbEntity
8
0
100
AcDbCircle
10
-71.500883801111428
20
-3.6975617622490708
30
0
40
1.25
210
0
220
-0
230
1
0
CIRCLE
5
115
100
AcDbEntity
8
0
100
AcDbCircle
10
-71.5008838011113
20
-51.697561762247844
30
0
40
1.25
210
0
220
-0
230
1
0
CIRCLE
5
116
100
AcDbEntity
8
0
100
AcDbCircle
10
14.999956611224794
20
0.036078544505949176
30
0
40
19
210
0
220
-0
230
1
0
CIRCLE
5
117
100
AcDbEntity
8
0
100
AcDbCircle
10
14.736462303882185
20
-25.362554701202331
30
0
40
1.0999999999999985
210
0
220
-0
230
1
0
CIRCLE
5
118
100
AcDbEntity
8
0
100
AcDbCircle
10
-6.8641578472912794
20
12.963587931271388
30
0
40
1.0999999999999985
210
0
220
-0
230
1
0
CIRCLE
5
119
100
AcDbEntity
8
0
100
AcDbCircle
10
-7.1276521546339042
20
-12.43504531443689
30
0
40
1.0999999999999985
210
0
220
-0
230
1
0
CIRCLE
5
120
100
AcDbEntity
8
0
100
AcDbCircle
10
15.263450918567402
20
25.434711790214237
30
0
40
1.0999999999999985
210
0
220
-0
230
1
0
CIRCLE
5
121
100
AcDbEntity
8
0
100
AcDbCircle
10
36.864071069740874
20
-12.891430842259478
30
0
40
1.0999999999999985
210
0
220
-0
230
1
0
CIRCLE
5
122
100
AcDbEntity
8
0
100
AcDbCircle
10
-31.000010847205566
20
0
30
0
40
9.1279999999999983
210
0
220
-0
230
1
0
CIRCLE
5
123
100
AcDbEntity
8
0
100
AcDbCircle
10
37.127565377083471
20
12.507202403448801
30
0
40
1.0999999999999985
210
0
220
-0
230
1
0
ENDSEC
0
SECTION
2
OBJECTS
0
DICTIONARY
5
C
100
AcDbDictionary
3
ACAD_GROUP
350
D
3
ACAD_MLINESTYLE
350
17
0
DICTIONARY
5
D
100
AcDbDictionary
0
DICTIONARY
5
1A
330
C
100
AcDbDictionary
0
DICTIONARY
5
17
100
AcDbDictionary
0
ENDSEC
0
EOF
